<svg width="20" height="22" viewBox="0 0 20 22" fill="none" xmlns="http://www.w3.org/2000/svg">
<path d="M1.34128 15.9998C0.918552 15.2688 0.589946 14.4873 0.363281 13.6738C0.856589 13.4229 1.27088 13.0404 1.56031 12.5687C1.84975 12.097 2.00305 11.5544 2.00325 11.0009C2.00346 10.4475 1.85057 9.90477 1.56148 9.43282C1.2724 8.96088 0.858401 8.57809 0.365281 8.32682C0.817317 6.69231 1.67801 5.19977 2.86628 3.98982C3.33037 4.29155 3.8689 4.45898 4.42226 4.4736C4.97562 4.48822 5.52223 4.34945 6.00161 4.07265C6.48099 3.79586 6.87443 3.39182 7.13841 2.90526C7.40238 2.41871 7.52659 1.8686 7.49728 1.31582C9.13939 0.891445 10.8625 0.892133 12.5043 1.31782C12.4752 1.87059 12.5997 2.42061 12.8639 2.90703C13.128 3.39345 13.5216 3.7973 14.0011 4.07388C14.4806 4.35047 15.0272 4.48901 15.5806 4.47417C16.1339 4.45934 16.6723 4.2917 17.1363 3.98982C17.7153 4.57982 18.2293 5.25082 18.6613 5.99982C19.0943 6.74882 19.4183 7.52982 19.6393 8.32582C19.146 8.57672 18.7317 8.9592 18.4423 9.43093C18.1528 9.90266 17.9995 10.4453 17.9993 10.9987C17.9991 11.5522 18.152 12.0949 18.4411 12.5668C18.7302 13.0388 19.1442 13.4216 19.6373 13.6728C19.1852 15.3073 18.3246 16.7999 17.1363 18.0098C16.6722 17.7081 16.1337 17.5407 15.5803 17.526C15.0269 17.5114 14.4803 17.6502 14.001 17.927C13.5216 18.2038 13.1281 18.6078 12.8642 19.0944C12.6002 19.5809 12.476 20.131 12.5053 20.6838C10.8632 21.1082 9.14005 21.1075 7.49828 20.6818C7.52733 20.1291 7.40288 19.579 7.1387 19.0926C6.87453 18.6062 6.48092 18.2023 6.00145 17.9258C5.52198 17.6492 4.97534 17.5106 4.42201 17.5255C3.86868 17.5403 3.33024 17.7079 2.86628 18.0098C2.27527 17.4068 1.76288 16.7314 1.34128 15.9998ZM7.00128 16.1958C8.06691 16.8105 8.86813 17.7968 9.25128 18.9658C9.75028 19.0128 10.2513 19.0138 10.7503 18.9668C11.1337 17.7977 11.9353 16.8113 13.0013 16.1968C14.0665 15.5805 15.3218 15.3793 16.5263 15.6318C16.8163 15.2238 17.0663 14.7888 17.2743 14.3338C16.4537 13.4173 16.0004 12.23 16.0013 10.9998C16.0013 9.73982 16.4713 8.56282 17.2743 7.66582C17.0648 7.21097 16.8137 6.77646 16.5243 6.36782C15.3206 6.62013 14.0661 6.4193 13.0013 5.80382C11.9357 5.18919 11.1344 4.20281 10.7513 3.03382C10.2523 2.98682 9.75128 2.98582 9.25228 3.03282C8.86888 4.20197 8.06729 5.18838 7.00128 5.80282C5.93606 6.41914 4.68076 6.62034 3.47628 6.36782C3.18685 6.77611 2.93641 7.21069 2.72828 7.66582C3.54885 8.58238 4.00216 9.76961 4.00128 10.9998C4.00128 12.2598 3.53128 13.4368 2.72828 14.3338C2.93775 14.7887 3.18882 15.2232 3.47828 15.6318C4.682 15.3795 5.93649 15.5803 7.00128 16.1958ZM10.0013 13.9998C9.20563 13.9998 8.44257 13.6838 7.87996 13.1211C7.31735 12.5585 7.00128 11.7955 7.00128 10.9998C7.00128 10.2042 7.31735 9.44111 7.87996 8.8785C8.44257 8.31589 9.20563 7.99982 10.0013 7.99982C10.7969 7.99982 11.56 8.31589 12.1226 8.8785C12.6852 9.44111 13.0013 10.2042 13.0013 10.9998C13.0013 11.7955 12.6852 12.5585 12.1226 13.1211C11.56 13.6838 10.7969 13.9998 10.0013 13.9998ZM10.0013 11.9998C10.2665 11.9998 10.5209 11.8945 10.7084 11.7069C10.8959 11.5194 11.0013 11.265 11.0013 10.9998C11.0013 10.7346 10.8959 10.4803 10.7084 10.2927C10.5209 10.1052 10.2665 9.99982 10.0013 9.99982C9.73606 9.99982 9.48171 10.1052 9.29417 10.2927C9.10664 10.4803 9.00128 10.7346 9.00128 10.9998C9.00128 11.265 9.10664 11.5194 9.29417 11.7069C9.48171 11.8945 9.73606 11.9998 10.0013 11.9998Z" />
</svg>
