<svg width="18" height="21" viewBox="0 0 18 21" fill="none" xmlns="http://www.w3.org/2000/svg">
<path d="M2 13.5508H4V18.5508H16V2.55078H4V7.55078H2V1.55078C2 1.28556 2.10536 1.03121 2.29289 0.843674C2.48043 0.656138 2.73478 0.550781 3 0.550781H17C17.2652 0.550781 17.5196 0.656138 17.7071 0.843674C17.8946 1.03121 18 1.28556 18 1.55078V19.5508C18 19.816 17.8946 20.0704 17.7071 20.2579C17.5196 20.4454 17.2652 20.5508 17 20.5508H3C2.73478 20.5508 2.48043 20.4454 2.29289 20.2579C2.10536 20.0704 2 19.816 2 19.5508V13.5508ZM8 9.55078V6.55078L13 10.5508L8 14.5508V11.5508H0V9.55078H8Z" fill="#9E9E9E"/>
</svg>
