<svg width="16" height="12" viewBox="0 0 16 12" fill="none" xmlns="http://www.w3.org/2000/svg">
<path d="M12.9 4.69335C12.4467 2.39335 10.4267 0.666687 8 0.666687C6.07333 0.666687 4.4 1.76002 3.56667 3.36002C1.56 3.57335 0 5.27335 0 7.33335C0 9.54002 1.79333 11.3334 4 11.3334H12.6667C14.5067 11.3334 16 9.84002 16 8.00002C16 6.24002 14.6333 4.81335 12.9 4.69335ZM12.6667 10H4C2.52667 10 1.33333 8.80669 1.33333 7.33335C1.33333 5.96669 2.35333 4.82669 3.70667 4.68669L4.42 4.61335L4.75333 3.98002C5.38667 2.76002 6.62667 2.00002 8 2.00002C9.74667 2.00002 11.2533 3.24002 11.5933 4.95335L11.7933 5.95335L12.8133 6.02669C13.8533 6.09335 14.6667 6.96669 14.6667 8.00002C14.6667 9.10002 13.7667 10 12.6667 10ZM5.33333 6.66669H7.03333V8.66669H8.96667V6.66669H10.6667L8 4.00002L5.33333 6.66669Z" fill="#546B81"/>
</svg>
