<svg width="65" height="15" viewBox="0 0 65 15" fill="none" xmlns="http://www.w3.org/2000/svg">
<path d="M8.3637 1.2C10.1117 1.2 11.505 1.87767 12.5437 3.233C13.5824 4.57567 13.937 6.178 13.6077 8.04C13.2784 9.92733 12.4044 11.479 10.9857 12.695C9.5797 13.8983 7.9267 14.5 6.0267 14.5H0.744703L3.0817 1.2H8.3637ZM11.0997 7.774C11.3024 6.558 11.1124 5.57633 10.5297 4.829C9.94704 4.08167 9.07937 3.708 7.9267 3.708H5.2667L3.8037 11.992H6.3117C7.5277 11.992 8.5727 11.5993 9.4467 10.814C10.3334 10.0287 10.8844 9.01533 11.0997 7.774ZM16.5307 6.121C17.6074 5.19633 18.8487 4.734 20.2547 4.734C21.6607 4.734 22.7691 5.22167 23.5797 6.197C24.3904 7.15967 24.6627 8.344 24.3967 9.75C24.3714 10.0287 24.2827 10.3643 24.1307 10.757H16.9487C16.9994 11.365 17.2337 11.8147 17.6517 12.106C18.0697 12.3973 18.5954 12.543 19.2287 12.543C20.1787 12.543 20.9577 12.22 21.5657 11.574L23.2947 12.961C22.2307 14.1643 20.8121 14.766 19.0387 14.766C17.4681 14.766 16.2711 14.2657 15.4477 13.265C14.6371 12.2643 14.3521 11.0293 14.5927 9.56C14.8081 8.17933 15.4541 7.033 16.5307 6.121ZM17.2907 8.838H22.1167C22.1041 8.192 21.9077 7.717 21.5277 7.413C21.1604 7.09633 20.6854 6.938 20.1027 6.938C19.4694 6.938 18.9057 7.10267 18.4117 7.432C17.9304 7.76133 17.5567 8.23 17.2907 8.838ZM34.9751 5L30.7951 9.731L33.4551 14.5H30.7951L29.1611 11.574L26.5771 14.5H23.6701L28.0401 9.56L25.4941 5H28.1541L29.6741 7.717L32.0681 5H34.9751ZM36.0466 14.747C35.6032 14.747 35.2549 14.5887 35.0016 14.272C34.7482 13.9427 34.6596 13.55 34.7356 13.094C34.8116 12.638 35.0269 12.2643 35.3816 11.973C35.7362 11.669 36.1479 11.517 36.6166 11.517C37.0599 11.517 37.4146 11.6817 37.6806 12.011C37.9466 12.3403 38.0352 12.7267 37.9466 13.17C37.8706 13.6133 37.6552 13.987 37.3006 14.291C36.9459 14.595 36.5279 14.747 36.0466 14.747Z" fill="#01579B"/>
<path d="M48.4455 14.5L48.1035 12.106H42.7835L41.5485 14.5H38.6795L45.6905 1.2H48.9395L51.2765 14.5H48.4455ZM44.0565 9.655H47.7425L46.9445 4.107L44.0565 9.655ZM56.7099 3.423C56.3679 3.71433 55.9879 3.86 55.5699 3.86C55.1519 3.86 54.8226 3.71433 54.5819 3.423C54.3413 3.119 54.2526 2.76433 54.3159 2.359C54.3793 1.941 54.5819 1.58633 54.9239 1.295C55.2659 0.990999 55.6459 0.838999 56.0639 0.838999C56.4819 0.838999 56.8113 0.990999 57.0519 1.295C57.3053 1.599 57.4003 1.95367 57.3369 2.359C57.2609 2.777 57.0519 3.13167 56.7099 3.423ZM52.4539 14.5L54.1259 5H56.5769L54.9049 14.5H52.4539ZM61.0053 6.52C61.6893 5.35467 62.7533 4.78467 64.1973 4.81L63.7223 7.546C63.2789 7.49533 62.8419 7.527 62.4113 7.641C61.9933 7.74233 61.5879 7.983 61.1953 8.363C60.8026 8.743 60.5429 9.24333 60.4163 9.864L59.5993 14.5H57.1483L58.8203 5H61.2713L61.0053 6.52Z" fill="#448AFF"/>
</svg>
